<?xml version="1.0" encoding="UTF-8"?>
<svg id="Calque_1" data-name="Calque 1" xmlns="http://www.w3.org/2000/svg" viewBox="0 0 266.32 173.88">
  <defs>
    <style>
      .cls-1 {
        fill: #a97dff;
      }
    </style>
  </defs>
  <g>
    <polygon class="cls-1" points="112.02 0 112.02 27.4 67.5 71.91 68.21 72.62 113.02 27.81 113.02 0 112.02 0"/>
    <path class="cls-1" d="M69.25,73.53c-.73.73-1.92.73-2.66,0-.73-.73-.73-1.92,0-2.66.73-.73,1.92-.73,2.66,0,.73.73.73,1.92,0,2.66Z"/>
  </g>
  <g>
    <polygon class="cls-1" points="146.86 0 146.86 9.03 88.41 67.48 89.12 68.19 147.86 9.44 147.86 0 146.86 0"/>
    <path class="cls-1" d="M87.5,66.44c-.73.73-.73,1.92,0,2.66.73.73,1.92.73,2.66,0,.73-.73.73-1.92,0-2.66-.73-.73-1.92-.73-2.66,0Z"/>
  </g>
  <g>
    <polygon class="cls-1" points="176.95 0 176.95 26.76 82.55 121.17 83.26 121.87 177.95 27.18 177.95 0 176.95 0"/>
    <path class="cls-1" d="M81.64,120.12c-.73.73-.73,1.92,0,2.66.73.73,1.92.73,2.66,0,.73-.73.73-1.92,0-2.66-.73-.73-1.92-.73-2.66,0Z"/>
  </g>
  <g>
    <polygon class="cls-1" points="242.36 0 242.36 5.54 149.3 98.6 150.01 99.3 243.36 5.95 243.36 0 242.36 0"/>
    <path class="cls-1" d="M148.39,97.56c-.73.73-.73,1.92,0,2.66.73.73,1.92.73,2.66,0,.73-.73.73-1.92,0-2.66-.73-.73-1.92-.73-2.66,0Z"/>
  </g>
  <g>
    <polygon class="cls-1" points="160.16 0 160.16 26.76 125.15 61.78 125.86 62.48 161.16 27.18 161.16 0 160.16 0"/>
    <path class="cls-1" d="M124.24,60.73c-.73.73-.73,1.92,0,2.66.73.73,1.92.73,2.66,0,.73-.73.73-1.92,0-2.66-.73-.73-1.92-.73-2.66,0Z"/>
  </g>
  <g>
    <rect class="cls-1" x="122.79" y="0" width="1" height="9.66"/>
    <path class="cls-1" d="M121.41,9.57c0,1.04.84,1.88,1.88,1.88,1.04,0,1.88-.84,1.88-1.88s-.84-1.88-1.88-1.88c-1.04,0-1.88.84-1.88,1.88Z"/>
  </g>
  <g>
    <polygon class="cls-1" points="161.33 67.55 160.62 66.84 210.5 16.97 230.98 16.97 230.98 17.97 210.91 17.97 161.33 67.55"/>
    <path class="cls-1" d="M159.71,65.8c-.73.73-.73,1.92,0,2.66.73.73,1.92.73,2.66,0,.73-.73.73-1.92,0-2.66-.73-.73-1.92-.73-2.66,0Z"/>
  </g>
  <g>
    <polygon class="cls-1" points="106.53 112.84 105.83 112.14 144.01 73.95 144.01 60.23 145.01 60.23 145.01 74.37 106.53 112.84"/>
    <path class="cls-1" d="M104.92,111.1c-.73.73-.73,1.92,0,2.66.73.73,1.92.73,2.66,0,.73-.73.73-1.92,0-2.66-.73-.73-1.92-.73-2.66,0Z"/>
  </g>
  <g>
    <polygon class="cls-1" points="60.78 92.24 60.78 91.24 78.27 91.24 134.17 35.34 151.8 35.34 151.8 36.34 134.58 36.34 78.68 92.24 60.78 92.24"/>
    <path class="cls-1" d="M60.87,89.86c-1.04,0-1.88.84-1.88,1.88,0,1.04.84,1.88,1.88,1.88,1.04,0,1.88-.84,1.88-1.88,0-1.04-.84-1.88-1.88-1.88Z"/>
  </g>
  <g>
    <rect class="cls-1" x="254.15" width="1" height="5.55"/>
    <path class="cls-1" d="M252.77,5.45c0,1.04.84,1.88,1.88,1.88,1.04,0,1.88-.84,1.88-1.88,0-1.04-.84-1.88-1.88-1.88s-1.88.84-1.88,1.88Z"/>
  </g>
  <g>
    <polygon class="cls-1" points="265.32 0 265.32 15.68 229.03 51.97 212.09 51.97 150.88 113.17 139.33 113.18 139.33 114.18 151.29 114.17 212.5 52.97 229.44 52.97 266.32 16.09 266.32 0 265.32 0"/>
    <path class="cls-1" d="M139.42,111.8c-1.04,0-1.88.84-1.88,1.88s.84,1.88,1.88,1.88c1.04,0,1.88-.84,1.88-1.88s-.84-1.88-1.88-1.88Z"/>
  </g>
  <g>
    <polygon class="cls-1" points="207.83 0 198.15 9.68 190.95 9.68 190.95 10.68 198.56 10.68 209.24 0 207.83 0"/>
    <path class="cls-1" d="M191.05,8.3c-1.04,0-1.88.84-1.88,1.88s.84,1.88,1.88,1.88,1.88-.84,1.88-1.88-.84-1.88-1.88-1.88Z"/>
  </g>
  <g>
    <polygon class="cls-1" points="222 43.9 221.29 43.2 239.24 25.24 255.91 25.25 255.91 26.25 239.66 26.24 222 43.9"/>
    <path class="cls-1" d="M220.38,42.15c-.73.73-.73,1.92,0,2.66.73.73,1.92.73,2.66,0,.73-.73.73-1.92,0-2.66-.73-.73-1.92-.73-2.66,0Z"/>
  </g>
  <g>
    <polygon class="cls-1" points="136.48 0 136.48 8.93 121.15 24.26 121.86 24.96 137.48 9.35 137.48 0 136.48 0"/>
    <path class="cls-1" d="M120.24,23.21c-.73.73-.73,1.92,0,2.66.73.73,1.92.73,2.66,0,.73-.73.73-1.92,0-2.66-.73-.73-1.92-.73-2.66,0Z"/>
  </g>
  <g>
    <polygon class="cls-1" points="162.33 55.71 161.62 55 184.05 32.57 194.86 32.57 194.86 33.57 184.46 33.57 162.33 55.71"/>
    <path class="cls-1" d="M160.71,53.96c-.73.73-.73,1.92,0,2.66.73.73,1.92.73,2.66,0,.73-.73.73-1.92,0-2.66-.73-.73-1.92-.73-2.66,0Z"/>
  </g>
  <g>
    <polygon class="cls-1" points="70.44 0 14.45 55.99 1.79 55.98 1.79 56.98 14.86 56.99 71.85 0 70.44 0"/>
    <path class="cls-1" d="M1.88,54.6c-1.04,0-1.88.84-1.88,1.88,0,1.04.84,1.88,1.88,1.88,1.04,0,1.88-.84,1.88-1.88,0-1.04-.84-1.88-1.88-1.88Z"/>
  </g>
  <g>
    <rect class="cls-1" x="83.16" width="1" height="22.14"/>
    <path class="cls-1" d="M81.78,22.05c0,1.04.84,1.88,1.88,1.88s1.88-.84,1.88-1.88-.84-1.88-1.88-1.88-1.88.84-1.88,1.88Z"/>
  </g>
  <g>
    <polygon class="cls-1" points="102.22 0 94.45 7.77 94.45 27.03 75.53 45.95 76.23 46.66 95.45 27.44 95.45 8.18 103.63 0 102.22 0"/>
    <path class="cls-1" d="M74.62,44.91c-.73.73-.73,1.92,0,2.66.73.73,1.92.73,2.66,0,.73-.73.73-1.92,0-2.66-.73-.73-1.92-.73-2.66,0Z"/>
  </g>
  <g>
    <polygon class="cls-1" points="43.94 50.55 43.23 49.84 54.95 38.12 54.95 15.56 55.95 15.56 55.95 38.53 43.94 50.55"/>
    <path class="cls-1" d="M42.32,48.8c-.73.73-.73,1.92,0,2.66.73.73,1.92.73,2.66,0,.73-.73.73-1.92,0-2.66-.73-.73-1.92-.73-2.66,0Z"/>
  </g>
  <g>
    <polygon class="cls-1" points="141.63 172.09 140.63 172.09 140.63 150.58 197.96 93.25 197.96 66.44 198.96 66.44 198.96 93.66 141.63 150.99 141.63 172.09"/>
    <circle class="cls-1" cx="141.13" cy="172" r="1.88"/>
  </g>
</svg>