<?xml version="1.0" encoding="UTF-8"?>
<svg xmlns="http://www.w3.org/2000/svg" viewBox="0 0 1730.26 1730.25">
  <defs>
    <style>
      .cls-1 {
        opacity: .8;
      }

      .cls-1, .cls-2 {
        mix-blend-mode: multiply;
      }

      .cls-3 {
        isolation: isolate;
      }

      .cls-4 {
        fill: #a97dff;
      }

      .cls-5 {
        fill: #fff;
      }

      .cls-6 {
        fill: #878787;
      }
    </style>
  </defs>
  <g class="cls-3">
    <g id="Fond_et_elements_graphiques" data-name="Fond et elements graphiques">
      <path class="cls-4" d="M1633.31,864.28c0,141.22-38.05,273.55-104.46,387.28-6.81,11.66-13.91,23.12-21.3,34.37-41.01,62.47-90.88,118.59-147.81,166.6-6.99,5.9-14.09,11.67-21.29,17.31-14.29,11.22-28.99,21.93-44.07,32.12-7.02,4.75-14.12,9.38-21.3,13.89-79.13,49.76-167.98,85.49-263.05,103.71-7.06,1.35-14.17,2.61-21.3,3.77-24.04,3.9-48.45,6.69-73.18,8.31-7.07.47-14.17.84-21.29,1.11-9.86.37-19.76.56-29.71.56-11.49,0-22.92-.25-34.28-.75-7.13-.31-14.23-.72-21.3-1.23-58.71-4.2-115.59-14.98-169.91-31.63-7.15-2.19-14.24-4.48-21.3-6.87-41.74-14.15-81.87-31.78-120.05-52.56-7.17-3.9-14.27-7.91-21.29-12.03-44.74-26.22-86.59-56.85-124.96-91.27-7.23-6.48-14.33-13.1-21.3-19.85-57.87-55.98-106.97-120.97-145.04-192.72-3.5-6.58-6.9-13.21-10.21-19.9h0c-15.76-31.91-29.37-65.07-40.65-99.3-8.43-25.58-15.55-51.75-21.29-78.44-8.56-39.83-14.04-80.81-16.18-122.67-.52-10.3-.85-20.66-.96-31.07-.03-2.91-.05-5.82-.05-8.74,0-189.26,68.34-362.55,181.7-496.53,6.93-8.2,14.03-16.24,21.3-24.14,58.79-63.9,128.26-117.81,205.59-158.91,6.58-3.5,13.22-6.9,19.91-10.21,63.71-31.51,132.42-54.45,204.61-67.3,7.06-1.26,14.17-2.43,21.3-3.48,37.31-5.58,75.5-8.46,114.36-8.46,23,0,45.76,1.01,68.25,3,9.13.79,18.21,1.76,27.24,2.88,33.26,4.12,65.87,10.37,97.67,18.6,7.92,2.05,15.79,4.22,23.61,6.52,73.13,21.46,141.74,53.5,204.05,94.35,7.18,4.71,14.28,9.53,21.3,14.48,44.09,31.05,84.77,66.63,121.36,106.06,7.26,7.82,14.36,15.79,21.29,23.91,114.72,134.34,183.99,308.69,183.99,499.23Z"/>
      <path d="M1449.32,227.03c-6.99-6.41-14.09-12.7-21.29-18.87-92.48-79.32-201.9-139.44-322.08-174.2-7.06-2.04-14.16-3.99-21.3-5.86C1014.55,9.76,940.98,0,865.13,0c-35.85,0-71.19,2.18-105.9,6.42-12.33,1.5-24.57,3.27-36.73,5.29-160.46,26.61-306.01,97.39-423.72,199.42-7.21,6.24-14.31,12.6-21.3,19.09C126.08,370.4,24.92,564.08,4.02,781.21c-.89,9.25-1.64,18.55-2.23,27.88-1.19,18.53-1.79,37.21-1.79,56.04,0,155.58,41.07,301.58,112.97,427.72,5.32,9.35,10.81,18.59,16.48,27.71,83.71,134.94,203.5,245.14,345.91,317.12,7.39,3.74,14.84,7.37,22.35,10.89,38.55,18.12,78.65,33.47,120.05,45.79,7.06,2.11,14.16,4.13,21.3,6.05,29.35,7.93,59.33,14.35,89.83,19.17,7.07,1.12,14.17,2.15,21.3,3.1,19.39,2.58,39,4.51,58.78,5.77,7.08.46,14.18.83,21.3,1.11,11.56.46,23.18.69,34.86.69,4.51,0,9-.03,13.49-.11,12.38-.18,24.69-.63,36.93-1.33,24.69-1.42,49.1-3.88,73.18-7.32,7.13-1.02,14.23-2.13,21.3-3.33,15.27-2.57,30.41-5.54,45.4-8.91,11.15-2.5,22.22-5.22,33.21-8.16,60.37-16.09,118.14-38.55,172.55-66.63,11.21-5.77,22.28-11.79,33.19-18.05,14.98-8.57,29.67-17.58,44.07-27.01,7.17-4.69,14.27-9.49,21.29-14.4,223.98-156.34,370.52-416,370.52-709.87,0-252.62-108.27-479.94-280.94-638.1ZM1507.55,1285.93c-41.01,62.47-90.88,118.59-147.81,166.6-6.99,5.9-14.09,11.67-21.29,17.31-14.29,11.22-28.99,21.93-44.07,32.12-7.02,4.75-14.12,9.38-21.3,13.89-79.13,49.76-167.98,85.49-263.05,103.71-7.06,1.35-14.17,2.61-21.3,3.77-24.04,3.9-48.45,6.69-73.18,8.31-7.07.47-14.17.84-21.29,1.11-9.86.37-19.76.56-29.71.56-11.49,0-22.92-.25-34.28-.75-7.13-.31-14.23-.72-21.3-1.23-58.71-4.2-115.59-14.98-169.91-31.63-7.15-2.19-14.24-4.48-21.3-6.87-41.74-14.15-81.87-31.78-120.05-52.56-7.17-3.9-14.27-7.91-21.29-12.03-44.74-26.22-86.59-56.85-124.96-91.27-7.23-6.48-14.33-13.1-21.3-19.85-57.87-55.98-106.97-120.97-145.04-192.72-3.5-6.58-6.9-13.21-10.21-19.9h0c-15.76-31.91-29.37-65.07-40.65-99.3-8.43-25.58-15.55-51.75-21.29-78.44-8.56-39.83-14.04-80.81-16.18-122.67-.52-10.3-.85-20.66-.96-31.07-.03-2.91-.05-5.82-.05-8.74,0-189.26,68.34-362.55,181.7-496.53,6.93-8.2,14.03-16.24,21.3-24.14,58.79-63.9,128.26-117.81,205.59-158.91,6.58-3.5,13.22-6.9,19.91-10.21,63.71-31.51,132.42-54.45,204.61-67.3,7.06-1.26,14.17-2.43,21.3-3.48,37.31-5.58,75.5-8.46,114.36-8.46,23,0,45.76,1.01,68.25,3,9.13.79,18.21,1.76,27.24,2.88,33.26,4.12,65.87,10.37,97.67,18.6,7.92,2.05,15.79,4.22,23.61,6.52,73.13,21.46,141.74,53.5,204.05,94.35,7.18,4.71,14.28,9.53,21.3,14.48,44.09,31.05,84.77,66.63,121.36,106.06,7.26,7.82,14.36,15.79,21.29,23.91,114.72,134.34,183.99,308.69,183.99,499.23,0,141.22-38.05,273.55-104.46,387.28-6.81,11.66-13.91,23.12-21.3,34.37Z"/>
      <g>
        <polygon points="1110.1 499.53 1052.13 437.08 1110.1 316.35 1168.07 437.08 1110.1 499.53"/>
        <polygon points="1090.18 308.92 1050.39 340.24 991.21 308.92 1050.39 277.6 1090.18 308.92"/>
        <polygon points="1126.22 309.76 1166.02 278.44 1225.19 309.76 1166.02 341.08 1126.22 309.76"/>
        <polygon points="1110.31 292.17 1078.99 252.37 1110.31 193.2 1141.63 252.37 1110.31 292.17"/>
      </g>
      <g class="cls-2">
        <path class="cls-6" d="M615.7,1541.09h23.36v58.61c-7.15-2.19-14.24-4.48-21.3-6.87v-49.68l-2.06-2.06Z"/>
        <path class="cls-6" d="M521.23,1449.6l-20.3-23.3v-99.18c6.39,4.12,13.58,7.08,21.29,8.57l-.99,113.91Z"/>
        <path class="cls-6" d="M522.22,932.52v15.77c-4.98-4.07-10.5-7.5-16.43-10.17.76-.24,1.51-.47,2.26-.72.94-.3,1.89-.61,2.82-.91.12-.04.24-.08.35-.12,1.08-.36,2.16-.72,3.23-1.09.28-.09.55-.18.82-.28,2.27-.78,4.53-1.59,6.76-2.41.06-.02.13-.05.19-.07Z"/>
        <path class="cls-6" d="M627.63,901.89v29.96l-21.3.1v-36.43c.74.3,1.49.59,2.24.88.15.05.3.11.45.17.82.3,1.64.6,2.47.89,1.03.36,2.06.71,3.09,1.03.74.24,1.48.47,2.22.69,3.55,1.06,7.16,1.96,10.83,2.71Z"/>
        <polygon class="cls-6" points="728.95 1335.71 728.95 1378.08 707.65 1378.08 707.65 1335.82 728.95 1335.71"/>
        <path class="cls-6" d="M830.27,1583.35v49.21c-7.13-.31-14.23-.72-21.3-1.23v-39.16l-52.77-52.77c2.95,1.1,6.13,1.69,9.45,1.69h22.36l42.26,42.26Z"/>
        <path class="cls-6" d="M686.72,166.67c0,5.53-2.15,10.74-6.06,14.65-1.22,1.22-2.57,2.24-4,3.1v157.83c-.84.32-1.67.64-2.5.97-.11.04-.21.08-.31.13-.71.28-1.41.57-2.11.87-.26.1-.51.21-.76.32-.64.27-1.28.55-1.91.85-.27.1-.54.22-.81.35-.53.24-1.06.48-1.59.74-.5.23-1,.46-1.5.71-.34.15-.67.32-1,.49-.55.26-1.1.54-1.64.82-.45.23-.9.46-1.35.7-.4.2-.79.41-1.18.62-.56.3-1.12.6-1.67.91-.29.15-.57.31-.84.47-.68.38-1.36.77-2.04,1.17-.03,0-.06.03-.09.05v-168.01c-6.02-3.63-10.07-10.21-10.07-17.74,0-5.53,2.15-10.73,6.07-14.65,1.95-1.96,4.23-3.47,6.71-4.5,2.48-1.02,5.17-1.56,7.94-1.56,5.71,0,10.89,2.32,14.64,6.07s6.07,8.93,6.07,14.64Z"/>
        <path class="cls-6" d="M750.19,103.71v230.24c-1.63-.25-3.27-.47-4.92-.65-.74-.08-1.49-.16-2.24-.23-.5-.05-1.01-.09-1.53-.13-.16-.02-.31-.03-.46-.04-.34-.03-.68-.05-1.02-.08-.61-.04-1.23-.08-1.85-.11-.79-.05-1.58-.09-2.38-.12-.89-.04-1.8-.06-2.71-.07-1.38-.03-2.78-.03-4.19-.01V107.19c7.06-1.26,14.17-2.43,21.3-3.48Z"/>
        <path class="cls-6" d="M850.06,203.86c0,5.53-2.15,10.73-6.07,14.64-1.21,1.22-2.56,2.24-4,3.11v64.08l-9.86,1.67c-.71.12-1.42.25-2.12.39-.74.14-1.48.3-2.21.46-.31.07-.61.13-.92.21-.63.14-1.25.29-1.88.45-.02,0-.04,0-.06,0-.76.19-1.52.4-2.28.61-.63.18-1.27.36-1.9.55-.02,0-.04,0-.06.02v-68.47c-6.02-3.62-10.07-10.21-10.07-17.73,0-5.54,2.15-10.74,6.07-14.65,3.91-3.92,9.11-6.07,14.64-6.07h.01c11.42,0,20.71,9.29,20.71,20.72Z"/>
        <path class="cls-6" d="M860.68,1336.24l-42.34,42.35c.81,3.27.82,6.7.02,9.97-8.74-8.38-20.77-13.04-34.31-13.04-1.68,0-3.34.09-4.97.26,1.02-2.48,2.53-4.82,4.54-6.83,3.91-3.91,9.11-6.06,14.65-6.06,1.71,0,3.39.23,5.02.63l30.68-30.69c7,2.22,14.44,3.41,22.15,3.41h4.56Z"/>
        <path class="cls-6" d="M1010.03,1336.24v46.7c-4.43-3.07-9.79-4.86-15.58-4.86h-5.72v-41.84h21.3Z"/>
        <path class="cls-6" d="M1050.6,1541.09h30.13l-70.7,70.68v7.79c-7.06,1.35-14.17,2.61-21.3,3.77v-19.35l-.51-.52.51-.51v-61.16c7.64-2.11,14.43-6.11,19.84-11.48.48.37.96.73,1.46,1.08v50.27l40.57-40.57Z"/>
        <path class="cls-6" d="M889.52,936.66c-7.01,2.62-13.5,6.28-19.31,10.79l-54.7-54.7v-16.39c6.2-.06,13.18-.46,21.29-1.24v8.81l52.72,52.73Z"/>
        <path class="cls-6" d="M960.04,101.13l-33.36,33.36v217.53c-.46-.78-.92-1.56-1.36-2.33-.37-.65-.74-1.3-1.1-1.94-.07-.13-.14-.25-.21-.38-.42-.75-.82-1.49-1.22-2.24-.41-.74-.8-1.48-1.18-2.22-.39-.74-.76-1.47-1.12-2.19-.34-.69-.68-1.37-1.01-2.04-.36-.75-.71-1.49-1.05-2.23-.32-.7-.64-1.39-.94-2.08l-11.45-26.06c-.21-.48-.43-.95-.66-1.42V125.67l27.42-27.42c9.13.79,18.21,1.76,27.24,2.88Z"/>
        <path class="cls-6" d="M1085.2,1328.15v49.93h-21.3v-42.88c7.46-1.25,14.63-3.63,21.3-7.05Z"/>
        <path class="cls-6" d="M1138.01,1307.55v70.32c-7.2,1.73-13.98,4.47-20.11,8.12-.39-.38-.78-.75-1.19-1.11v-87.55c3.36-6.24,5.8-12.94,7.23-19.93,2.37,11.18,7.27,21.44,14.07,30.15Z"/>
        <path class="cls-6" d="M925.62,1562.2c0,5.53-2.15,10.73-6.07,14.64-1.21,1.22-2.56,2.24-4,3.11v51.69c-7.07.47-14.17.84-21.29,1.11v-52.8c-1.44-.87-2.79-1.89-4.01-3.11-3.91-3.91-6.06-9.11-6.06-14.65s2.15-10.73,6.06-14.64c1.96-1.96,4.24-3.48,6.72-4.51,2.48-1.02,5.16-1.56,7.93-1.56,5.54,0,10.74,2.15,14.65,6.07,1.96,1.95,3.47,4.23,4.5,6.71,1.03,2.48,1.57,5.17,1.57,7.94Z"/>
        <path class="cls-6" d="M1035.19,172.37c.41,1.62.64,3.3.64,5.02,0,5.54-2.16,10.74-6.07,14.65-3.91,3.91-9.11,6.07-14.65,6.07s-10.73-2.16-14.65-6.07c-8.07-8.08-8.07-21.22,0-29.3,3.92-3.91,9.12-6.06,14.65-6.06,1.72,0,3.4.23,5.02.63l37.58-37.58c7.92,2.05,15.79,4.22,23.61,6.52l-46.13,46.12Z"/>
        <path class="cls-6" d="M588.95,239.16v132.6c-.09-.08-.18-.15-.28-.22-.65-.53-1.3-1.06-1.96-1.57-.81-.65-1.64-1.29-2.47-1.92-.68-.52-1.38-1.04-2.07-1.56-1.11-.81-2.23-1.62-3.36-2.42-.6-.43-1.21-.85-1.82-1.27-.99-.69-1.98-1.36-2.99-2.03-2.09-1.37-4.21-2.7-6.35-3.99v-108.8l-63.28-63.28c6.58-3.5,13.22-6.9,19.91-10.21l64.67,64.67Z"/>
        <path class="cls-6" d="M1193.95,855.41c-5.67,4.33-10.75,9.39-15.09,15.02l-47.2-47.19c.94-.26,1.88-.53,2.81-.81.93-.27,1.86-.56,2.79-.86.89-.28,1.77-.57,2.64-.87.06-.02.13-.04.19-.07.91-.31,1.82-.63,2.72-.96.65-.23,1.3-.48,1.94-.72,2-.76,3.98-1.57,5.95-2.42.52-.22,1.03-.45,1.55-.68.46-.2.93-.41,1.39-.62.03-.02.05-.03.08-.04l40.23,40.22Z"/>
        <path class="cls-6" d="M1294.38,1336.18v165.78c-7.02,4.75-14.12,9.38-21.3,13.89v-179.67h21.3Z"/>
        <path class="cls-6" d="M298.78,343.61v13.36c-.88.41-1.77.83-2.65,1.27-.65.31-1.31.63-1.97.96-2.06,1.01-4.13,2.06-6.2,3.13-.82.43-1.64.86-2.46,1.3-2.67,1.41-5.34,2.87-8.02,4.39v-.27c6.93-8.2,14.03-16.24,21.3-24.14Z"/>
        <path class="cls-6" d="M405.95,1336.24l-54.49,54.48v46.25c-7.23-6.48-14.33-13.1-21.3-19.85v-80.91h21.3v24.39l24.38-24.37h30.11Z"/>
        <path class="cls-6" d="M497.71,1514.72v25.55c-7.17-3.9-14.27-7.91-21.29-12.03v-4.7l-19.18-19.18c-1.64.41-3.32.64-5.01.64-5.3,0-10.61-2.02-14.65-6.06-8.07-8.08-8.07-21.22.01-29.3,1.96-1.96,4.23-3.47,6.71-4.5,2.48-1.02,5.17-1.56,7.93-1.56,5.54,0,10.74,2.15,14.65,6.06h0c3.92,3.92,6.07,9.12,6.07,14.65,0,1.72-.23,3.4-.64,5.03l25.4,25.4Z"/>
        <path class="cls-6" d="M509.11,271.38c0,5.53-2.15,10.73-6.07,14.64h0c-3.91,3.92-9.11,6.07-14.65,6.07-1.71,0-3.39-.23-5.02-.63l-33.57,33.58c-1.04-.02-2.08-.04-3.12-.05-1.08,0-2.17-.02-3.25-.02-1.43,0-2.86.01-4.3.04h-.65c-1.4.02-2.81.05-4.22.1-.37.01-.75.02-1.12.04-1.28.03-2.56.08-3.85.15-.21,0-.41,0-.62.02-3.19.15-6.4.35-9.61.6-.09,0-.19,0-.28.02l49.54-49.55c-1.69-6.82.1-14.34,5.42-19.66,3.92-3.91,9.12-6.07,14.65-6.07h.01c5.53,0,10.73,2.15,14.64,6.07,3.92,3.91,6.07,9.11,6.07,14.65Z"/>
        <path class="cls-6" d="M95.83,873.02l38.43,38.43v193.75c-8.43-25.58-15.55-51.75-21.29-78.44v-106.49l-16.18-16.18c-.52-10.3-.85-20.66-.96-31.07Z"/>
        <path class="cls-6" d="M185.78,1182.97c2.24,1.27,4.57,2.45,7,3.56-2.39.15-4.73.48-7,.98v-4.54Z"/>
        <path class="cls-6" d="M217.14,937.37c0,5.54-2.16,10.74-6.07,14.65-1.21,1.22-2.57,2.24-4,3.11v38.49c-7.11,10.06-14.4,20.27-21.3,29.86v-68.35c-1.43-.87-2.78-1.89-4-3.11-3.91-3.91-6.06-9.11-6.06-14.65s2.15-10.73,6.06-14.64c3.92-3.92,9.12-6.07,14.65-6.07,11.43,0,20.72,9.29,20.72,20.71Z"/>
        <path class="cls-6" d="M983.55,904.02l27.79,27.79-30.06.05-12.78-12.78c-1.63.4-3.31.63-5.03.63-2.76,0-5.45-.54-7.93-1.56-2.48-1.03-4.76-2.55-6.72-4.5-8.07-8.08-8.07-21.22,0-29.3,3.92-3.92,9.12-6.07,14.65-6.07s10.74,2.15,14.65,6.07c3.91,3.91,6.07,9.11,6.07,14.65,0,1.72-.23,3.39-.64,5.02Z"/>
        <path class="cls-6" d="M1132.13,934.82c-6.79-2.07-14-3.18-21.45-3.18h-.11l-11.72.02-69.14-69.15v-44.61c1.56.66,3.13,1.3,4.72,1.91.31.12.62.23.93.35.63.23,1.27.47,1.91.7.28.09.56.19.84.29.64.22,1.29.44,1.93.65.09.04.19.07.29.1.7.23,1.39.45,2.09.67.77.24,1.54.47,2.31.69.68.2,1.36.4,2.04.58.67.19,1.34.37,2.02.54.56.15,1.12.29,1.68.42.18.05.36.1.54.14v28.75l81.12,81.13Z"/>
        <path class="cls-6" d="M1449.32,365.05v85.5s0,0-.01-.02c-.19-.56-.39-1.11-.59-1.66-.21-.57-.42-1.14-.64-1.71-.28-.74-.56-1.46-.85-2.18-.69-1.71-1.42-3.4-2.18-5.05-.27-.6-.54-1.19-.83-1.78-.42-.87-.84-1.72-1.27-2.57-.38-.76-.78-1.5-1.18-2.24-.4-.74-.8-1.47-1.23-2.2-.4-.72-.83-1.44-1.26-2.15-.41-.69-.84-1.37-1.27-2.05-.04-.06-.07-.11-.1-.16-.34-.53-.68-1.05-1.03-1.57-.55-.82-1.1-1.62-1.66-2.41-1.07-1.54-2.16-3.04-3.29-4.52-.22-.3-.45-.59-.68-.88-.44-.57-.89-1.14-1.35-1.71-.59-.73-1.19-1.45-1.8-2.17-.02-.03-.04-.06-.07-.09v-72.29c7.26,7.82,14.36,15.79,21.29,23.91Z"/>
        <path class="cls-6" d="M1500.81,618.43l-.29.29c.05-.14.11-.28.16-.42l.13.13Z"/>
        <path class="cls-6" d="M1587.35,734.97v247.3h-21.3v-35.82c6.35-11.52,9.97-24.75,9.97-38.81s-3.6-27.24-9.97-38.83v-125.02l-83.18-83.18c.35-.69.69-1.38,1.04-2.09,2.84-5.77,5.63-11.95,8.4-18.59l95.04,95.04Z"/>
        <path class="cls-6" d="M1374.92,377.49c-.69-.23-1.38-.46-2.08-.67-.05-.02-.1-.03-.15-.05-.68-.21-1.37-.42-2.06-.61-.12-.04-.24-.08-.36-.11-.62-.18-1.25-.36-1.88-.53-.54-.15-1.09-.29-1.64-.43-.44-.12-.89-.23-1.33-.33-.87-.21-1.74-.42-2.62-.61-.46-.11-.93-.21-1.4-.3-1.19-.25-2.39-.49-3.59-.7h-.04c-.45-.08-.9-.16-1.35-.23-.28-.05-.56-.1-.84-.14-.45-.07-.89-.14-1.34-.2-1.43-.22-2.88-.41-4.33-.57-.65-.07-1.3-.14-1.95-.2-.74-.08-1.49-.14-2.23-.2-.06-.01-.12-.01-.18-.02-.76-.05-1.51-.11-2.27-.15-1.57-.1-3.15-.16-4.73-.2l-53.18-53.18v-97.46c7.18,4.71,14.28,9.53,21.3,14.48v74.16l68.25,68.25Z"/>
        <path class="cls-6" d="M1226.49,796.95c-1.17,2.19-2.25,4.45-3.22,6.76l-9.91-9.91c.88.25,1.77.49,2.66.73.32.09.63.17.95.24.77.2,1.54.4,2.31.59.34.08.67.16,1.01.24.95.22,1.91.44,2.87.65,1,.22,2.01.43,3.02.64.1.02.21.04.31.06Z"/>
        <path class="cls-6" d="M1338.28,1336.18h30.11l-8.65,8.65v107.7c-6.99,5.9-14.09,11.67-21.29,17.31v-131.75l-1.04-1.04.87-.87Z"/>
        <path class="cls-6" d="M1456.57,709.14v19.17c-5.37-2.07-10.95-3.7-16.7-4.84.11-.12.22-.24.33-.37.82-.89,1.62-1.79,2.42-2.7,1.45-1.63,2.87-3.28,4.27-4.96.66-.77,1.31-1.55,1.94-2.34.22-.25.43-.5.63-.76.95-1.16,1.9-2.34,2.83-3.52.58-.74,1.16-1.49,1.72-2.24l2.56,2.56Z"/>
        <path class="cls-6" d="M1523.89,1237.02c1.72-1.81,3.38-3.68,4.96-5.58v20.12c-6.81,11.66-13.91,23.12-21.3,34.37v-31.62l16.34-17.29Z"/>
      </g>
    </g>
    <g id="RENNES">
      <g class="cls-1">
        <path d="M621.5,1471.35c12.64-4,20.64-15.68,20.64-29.92,0-23.84-19.52-35.84-45.12-35.84h-45.28v108h29.28l.16-30.4h5.44c9.6,0,13.76,2.72,17.44,10.08l10.08,20.32h32.16l-11.04-22.72c-4.8-9.76-8.32-16-13.76-19.52ZM597.02,1456.95h-15.84l.16-24.16h16c8.32,0,14.4,3.52,14.4,11.68,0,7.68-6.08,12.48-14.72,12.48Z"/>
        <path d="M693.49,1472.79h47.68v-26.4h-47.68v-14.4h51.36v-26.4h-55.36c-18.24,0-25.6,9.6-25.6,24.8v58.4c0,15.2,7.36,24.8,25.6,24.8h56.16v-26.4h-52.16v-14.4Z"/>
        <path d="M840.05,1471.99l-38.08-60.32c-3.84-6.08-10.4-8.64-17.92-8.64-9.44,0-18.4,6.88-18.4,18.4v92.16h28v-66.56l38.08,60.32c3.84,6.08,10.56,8.64,17.92,8.64,9.44,0,18.4-6.72,18.4-18.24v-92.16h-28v66.4Z"/>
        <path d="M966.45,1471.99l-38.08-60.32c-3.84-6.08-10.4-8.64-17.92-8.64-9.44,0-18.4,6.88-18.4,18.4v92.16h28v-66.56l38.08,60.32c3.84,6.08,10.56,8.64,17.92,8.64,9.44,0,18.4-6.72,18.4-18.24v-92.16h-28v66.4Z"/>
        <path d="M1047.25,1472.79h47.68v-26.4h-47.68v-14.4h51.36v-26.4h-55.36c-18.24,0-25.6,9.6-25.6,24.8v58.4c0,15.2,7.36,24.8,25.6,24.8h56.16v-26.4h-52.16v-14.4Z"/>
        <path d="M1162.13,1446.71c-10.56-1.6-17.6-3.52-17.6-9.6,0-4.48,3.84-6.72,10.88-6.72,10.08,0,15.84,4.32,18.88,9.6l24.64-12.32c-7.36-16-23.36-24.48-42.24-24.48-24,0-41.76,15.2-41.76,35.04,0,25.76,23.68,32,39.84,34.4,9.76,1.44,16.16,2.4,16.16,8.8,0,5.12-5.92,7.52-13.76,7.52-10.08,0-16.16-3.04-19.2-9.6l-24.64,12.32c7.36,16,23.36,24.48,43.84,24.48,24,0,43.36-15.2,43.36-35.04,0-25.92-22.4-32-38.4-34.4Z"/>
      </g>
    </g>
    <g id="BIERE">
      <g>
        <path d="M1034.43,819.81c-1.59-.61-3.16-1.25-4.72-1.91,1.56.67,3.13,1.3,4.72,1.91ZM728.89,332.51c1.41-.02,2.81-.02,4.19.01-1.38-.04-2.78-.04-4.19-.01ZM627.63,901.89c-3.67-.75-7.28-1.65-10.83-2.71,3.55,1.07,7.17,1.97,10.83,2.71Z"/>
        <path d="M1503.09,611.48c-.81,2.32-1.61,4.59-2.41,6.82-.05.14-.11.28-.16.42-2.73,7.56-5.46,14.61-8.21,21.21-2.77,6.64-5.56,12.82-8.4,18.59-.35.71-.69,1.4-1.04,2.09-.78,1.57-1.57,3.11-2.36,4.62-7.64,14.45-16.54,28.34-26.5,41.35-.56.75-1.14,1.5-1.72,2.24-.93,1.18-1.88,2.36-2.83,3.52-.2.26-.41.51-.63.76-.63.79-1.28,1.57-1.94,2.34-1.4,1.68-2.82,3.33-4.27,4.96-.8.91-1.6,1.81-2.42,2.7-.11.13-.22.25-.33.37-8.06,8.85-16.56,16.98-25.44,24.33-31.28,25.99-66.79,42.51-105.52,49.09-29.59,5.03-57.31,5.06-82.42.06-.1-.02-.21-.04-.31-.06-1.01-.21-2.02-.42-3.02-.64-.96-.21-1.92-.43-2.87-.65-.34-.08-.67-.16-1.01-.24-.77-.19-1.54-.39-2.31-.59-.32-.07-.63-.15-.95-.24-.89-.24-1.78-.48-2.66-.73-6.13-1.71-12.09-3.76-17.85-6.13-13.18,11.64-27.14,20.83-41.79,27.52-.03,0-.05.02-.08.04-.46.21-.93.42-1.39.62-.51.23-1.03.46-1.55.68-1.97.85-3.95,1.66-5.95,2.42-.64.24-1.29.49-1.94.72-.9.33-1.81.65-2.72.96-.06.03-.13.05-.19.07-.87.3-1.75.59-2.64.87-.93.3-1.86.59-2.79.86-.93.28-1.87.55-2.81.81-4.71,1.31-9.49,2.38-14.32,3.2-23.71,4-46,3.41-66.33-1.5-.18-.04-.36-.09-.54-.14-.56-.13-1.12-.27-1.68-.42-.68-.17-1.35-.35-2.02-.54-.68-.18-1.36-.38-2.04-.58-.77-.22-1.54-.45-2.31-.69-.7-.22-1.39-.44-2.09-.67-.1-.03-.2-.06-.29-.1-.64-.21-1.29-.43-1.93-.65-.28-.1-.56-.2-.84-.29-.64-.23-1.28-.47-1.91-.7-.31-.12-.62-.23-.93-.35-1.59-.61-3.16-1.25-4.72-1.91-7.92-3.36-15.45-7.48-22.57-12.32-4.92,4.8-10.01,9.37-15.24,13.67-31.18,26.02-66.64,42.98-105.54,49.17-20.45,3.26-36.47,5.46-49.56,6.7-8.11.78-15.09,1.18-21.29,1.24-18.82.18-30.56-2.79-45.14-8.27-47.01,32.05-108.12,36.42-116.2,36.42-9.13,0-17.99-.87-26.54-2.62-3.67-.75-7.28-1.65-10.83-2.71-.74-.22-1.48-.45-2.22-.69-1.03-.32-2.06-.67-3.09-1.03-.83-.29-1.65-.59-2.47-.89-.15-.06-.3-.12-.45-.17-.75-.29-1.5-.58-2.24-.88-3.02-1.21-5.99-2.54-8.91-4-21.82,16.85-47,30.57-75.2,41-.06.02-.13.05-.19.07-2.23.82-4.49,1.63-6.76,2.41-.27.1-.54.19-.82.28-1.07.37-2.15.73-3.23,1.09-.11.04-.23.08-.35.12-.93.31-1.88.61-2.82.91-.75.25-1.5.48-2.26.72-3.01.94-6.05,1.85-9.12,2.72-29.97,8.55-60.27,12.89-90.04,12.89-22.63,0-45.6-2.53-68.25-7.51-53.93-12.01-100.06-37.77-137.13-76.55-28.7-30.12-46.28-58.65-53.77-87.24-4.77-18.49-9.82-64.15,40.38-102.15-19.27-19.59-32.64-43.12-39.76-70.12-6.93-26.37-8.24-52.11-3.89-76.52,3.95-22.2,11.71-43.41,23.08-63.03,10.3-17.6,23.14-34.05,38.21-48.94,13.58-13.45,28.67-25.84,44.84-36.79,9.1-6.16,18.15-11.79,27.14-16.86,2.68-1.52,5.35-2.98,8.02-4.39.82-.44,1.64-.87,2.46-1.3,2.07-1.07,4.14-2.12,6.2-3.13.66-.33,1.32-.65,1.97-.96.88-.44,1.77-.86,2.65-1.27,13.88-6.57,27.56-11.77,40.96-15.58,24.66-7.04,45.74-11.61,64.42-13.97,4.88-.61,9.76-1.1,14.62-1.48.09-.01.19-.01.28-.02,3.21-.25,6.42-.45,9.61-.6.21-.01.41-.02.62-.02,1.29-.06,2.57-.11,3.85-.15.37-.02.75-.03,1.12-.04,1.41-.04,2.82-.08,4.22-.1h.65c1.44-.03,2.87-.04,4.3-.04,1.08,0,2.17.01,3.25.02,1.04.01,2.08.03,3.12.05,3.88.07,7.71.23,11.5.45,19.3,1.18,38.3,4.41,56.5,9.61,17.78,5.13,34.5,12.41,49.85,21.68,2.14,1.29,4.26,2.62,6.35,3.99,1.01.67,2,1.34,2.99,2.03.61.42,1.22.84,1.82,1.27,1.13.8,2.25,1.61,3.36,2.42l2.07,1.56c.83.63,1.66,1.27,2.47,1.92.66.51,1.32,1.04,1.96,1.57.1.07.19.14.28.22,8.09,6.57,15.51,13.74,22.24,21.46,2.13-3.07,4.4-6.06,6.8-8.96,10.71-12.92,23.29-23.6,37.37-31.84.03-.02.06-.04.09-.05.68-.4,1.36-.79,2.04-1.17.27-.16.55-.32.84-.47.55-.31,1.11-.61,1.67-.91.39-.22.78-.42,1.18-.62.45-.24.9-.47,1.35-.7.54-.28,1.09-.56,1.64-.82.33-.17.66-.34,1-.49.5-.25,1-.49,1.5-.71.53-.26,1.06-.5,1.59-.74.27-.13.54-.25.81-.35.63-.3,1.27-.58,1.91-.85.25-.11.5-.22.76-.32.7-.3,1.4-.59,2.11-.87.1-.05.2-.09.31-.13.83-.33,1.66-.65,2.5-.97,8.83-3.34,18.09-5.85,27.71-7.49,8.44-1.42,16.61-2.17,24.52-2.25,1.41-.02,2.81-.02,4.19.01.91,0,1.82.03,2.71.07.8.03,1.59.07,2.38.12.62.03,1.24.07,1.85.11.34.03.68.05,1.02.08.15,0,.3.02.46.04.52.04,1.03.08,1.53.13.75.07,1.5.15,2.24.23,1.65.18,3.29.4,4.92.65,2.6.39,5.17.87,7.71,1.42,1.16-1.54,2.34-3.05,3.54-4.54,16.98-20.77,36.2-34.43,57.26-40.77.02,0,.04-.02.06-.02.63-.19,1.26-.38,1.9-.55.75-.21,1.52-.42,2.28-.61.02,0,.04,0,.06,0,.63-.16,1.25-.31,1.88-.45.31-.08.61-.14.92-.21.73-.16,1.47-.32,2.21-.46.7-.14,1.41-.27,2.12-.39l9.86-1.67,18.24-3.09c2.23-.4,4.76-.62,7.35-.62,16.98,0,32.43,9.73,39.8,24.91.23.47.45.94.66,1.42l11.45,26.06c.3.69.61,1.38.94,2.08.34.74.69,1.48,1.05,2.23.32.67.66,1.35,1.01,2.04.36.72.73,1.45,1.12,2.19.37.73.77,1.47,1.18,2.22.39.74.79,1.49,1.22,2.24.07.13.14.25.21.38.36.64.72,1.29,1.1,1.94.44.77.89,1.55,1.36,2.33,6.41,10.87,14.71,22.86,24.83,35.84,1.99,2.59,3.73,4.77,5.32,6.64l7.96,4.73c8.43-4.58,17.49-7.71,27.06-9.34,8.34-1.37,16.36-2.06,23.94-2.06,29.83,0,57.11,9.91,78.87,28.65,8.35,7.13,19.04,18.82,26.47,36.04,3.42-.18,6.88-.44,10.36-.8l37.86-3.81c.92-.12,1.92-.16,2.98-.19,7.07-7.07,14.63-13.85,22.55-20.22,35.04-28.8,74.07-47.07,115.89-54.19,8.36-1.4,16.64-2.11,24.65-2.11,1.05,0,2.09.01,3.13.04,1.58.04,3.16.1,4.73.2.76.04,1.51.1,2.27.15.06,0,.12,0,.18.02.74.06,1.49.12,2.23.2.65.06,1.3.13,1.95.2,1.45.16,2.9.35,4.33.57.45.06.89.13,1.34.2.28.04.56.09.84.14.45.07.9.15,1.35.23h.04c1.2.22,2.4.45,3.59.7.47.1.93.2,1.4.3.88.19,1.75.4,2.62.61.45.11.89.22,1.33.33.55.14,1.1.28,1.64.43.63.17,1.26.35,1.88.53.12.03.24.07.36.11.69.19,1.38.4,2.06.61.05.02.1.03.15.05.7.22,1.39.44,2.08.67,20.62,6.85,38.87,19.11,53.11,35.94.03.03.05.06.07.09.61.72,1.21,1.44,1.8,2.17.46.57.91,1.14,1.35,1.71.23.29.46.59.68.88,1.13,1.48,2.22,2.98,3.29,4.52.56.79,1.11,1.59,1.66,2.41.34.52.69,1.04,1.03,1.57.03.05.06.1.1.16.43.68.85,1.36,1.27,2.05.43.71.85,1.43,1.26,2.15.42.73.83,1.46,1.23,2.2.4.74.79,1.49,1.18,2.24.43.85.85,1.7,1.27,2.57.28.59.56,1.18.83,1.78.76,1.65,1.49,3.34,2.18,5.05.29.72.58,1.45.85,2.18.22.57.43,1.14.64,1.71.2.55.4,1.1.59,1.66t.01.02c1.11,3.17,2.11,6.43,3,9.78,32.71,10.08,56.41,38.19,61.63,74.34,3.21,21.88-.24,46.3-10.86,76.81Z"/>
        <path class="cls-5" d="M1471.79,600.58v.02c-6.9,19.85-13.64,35.95-20.6,49.17-7.15,13.53-15.57,26.54-24.98,38.59-10.06,12.75-21.13,24.16-32.94,33.92-26.76,22.24-57.01,36.34-89.91,41.93-39.99,6.81-75.36,3.16-103.64-11.02-6.35-3.18-14.04-1.97-19.08,3.03-20.95,20.7-44.12,33.33-68.84,37.54-8.66,1.46-17.1,2.2-25.08,2.2-27.24,0-51.55-8.65-70.31-25.03-6.81-5.93-17.1-5.34-23.17,1.35-6.99,7.7-14.53,14.9-22.49,21.45-26.71,22.29-56.96,36.43-89.91,42.01-41.89,7.04-77.24,12.92-105.63-2.07-6.32-3.33-13.66-1.8-19.2,2.69-42.44,34.41-95.62,35-101.84,35-18.31,0-35.02-4.65-49.64-13.82-6.13-3.83-14.02-3.26-19.53,1.41-26.28,22.31-59.04,39.13-97.4,50.01-47.55,13.57-95.05,15.25-142.06,4.89-47.38-10.55-87.87-33.12-120.32-67.07-24.7-25.93-39.65-49.73-45.66-72.68-3.98-15.45-4.86-45.27,33.87-71.37l10.5-7.01c4.43-2.97,7.18-7.89,7.35-13.22.19-5.33-2.21-10.42-6.43-13.68-2.16-1.66-4.3-3.36-6.42-5.24-18.97-16.67-31.85-37.49-38.28-61.86-5.7-21.67-6.81-42.62-3.31-62.28,3.27-18.38,9.7-35.95,19.1-52.15,8.8-15.04,19.85-29.19,32.87-42.06,12.15-12.03,25.64-23.1,40.12-32.91,27.61-18.7,54.48-31.84,79.88-39.05,23.05-6.58,42.52-10.82,59.47-12.97,11.74-1.45,23.47-2.19,34.87-2.19,5.48,0,10.93.16,16.17.47,16.86,1.02,33.47,3.85,49.33,8.38,17.02,4.91,32.89,12.15,47.09,21.48,17.92,11.88,32.59,26.75,43.59,44.19,3.32,5.26,9.35,8.22,15.48,7.67,6.18-.55,11.55-4.51,13.89-10.26,3.59-8.83,8.58-17.11,14.81-24.62,16.84-20.33,39.8-33.46,66.4-37.99,18.62-3.15,35.21-2.14,49.6,2.73,7.21,2.43,15.18-.35,19.29-6.79,2.59-4.06,5.41-7.99,8.35-11.62,14.76-18.05,31.1-28.72,48.56-31.71l28.23-4.78c.45-.09,1.03-.13,1.64-.13,4.39,0,8.37,2.59,10.13,6.56l11.44,26.03c7.74,17.55,20.6,37.92,38.13,60.39,3.09,4.04,5.84,7.41,8.43,10.31,1.12,1.26,2.43,2.34,3.89,3.21l17.18,10.22c.17.1.46.25.62.34,5.78,4.07,13.5,4.05,19.23-.08,6.97-5,14.42-8.12,22.69-9.53,6.47-1.07,12.69-1.61,18.47-1.61,21.78,0,41.57,7.14,57.29,20.67,6.81,5.81,15.9,16.14,20.59,32.33,2.05,7.09,8.54,11.97,15.92,11.97h1.38c7.77,0,15.81-.42,23.87-1.25l37.99-3.83c.15,0,.31-.01.46-.01.88,0,1.8.05,3.01.24,5.43.9,10.92-1,14.68-5,7.55-8.01,15.85-15.66,24.81-22.87,30.66-25.21,64.49-41.1,100.5-47.22,6.52-1.1,12.96-1.65,19.13-1.65,29.66,0,56.11,13.61,72.66,37.49,6.7,9.42,11.43,21.29,14.08,35.26,1.29,6.78,6.64,12.05,13.44,13.24,23.96,4.17,41.85,23.43,45.55,49.1,2.42,16.44-.56,35.87-9.36,61.14Z"/>
      </g>
      <g>
        <path d="M684.65,500.25c3.87,2.44,8.1,4.1,12.7,4.95,4.59.87,9.63.84,15.09-.09,5.45-.92,11.75-3,18.87-6.23,7.12-3.24,13.6-7.33,19.44-12.29,5.83-4.94,10.52-10.63,14.07-17.02,3.55-6.4,4.59-14.6,3.14-24.6-1.45-10-6.28-18.26-14.5-24.81-8.23-6.54-20.09-8.49-35.61-5.86-15.52,2.63-28.1,9.79-37.76,21.47-4.49,5.4-7.64,11.55-9.43,18.43-1.8,6.88-2.03,14.94-.69,24.19,1.34,9.24,6.22,16.54,14.67,21.87Z"/>
        <path d="M831.77,442c4.8,5.57,10.11,10.81,15.94,15.72,5.82,4.91,11.67,9.14,17.54,12.68,5.87,3.56,11.52,6.23,16.98,8.01,5.45,1.78,9.46,2.46,12.03,2.03,2.58-.44,5.52-2.43,8.84-5.99,3.31-3.56,5.43-8.31,6.32-14.26-5.07-3.01-12.33-10.68-21.78-22.99-20.04-25.81-34.7-49.24-43.98-70.29-5.77.98-12.32,5.95-19.65,14.93-7.87,9.64-11.3,17.95-10.29,24.94,1.56,10.76,7.57,22.5,18.05,35.23Z"/>
        <path d="M1434.1,546.25c-1.09-7.55-5.11-10.45-12.05-8.7-9.29,25.17-21.94,45.14-37.94,59.93-15.99,14.8-33.97,23.87-53.93,27.25-31.98,5.41-53.91-.93-65.79-19.02,20.93-6.63,39.17-14.75,54.71-24.35,8.82-5.35,16.97-11.32,24.49-17.92,7.51-6.58,13.89-13.85,19.14-21.8,5.24-7.95,9.07-16.47,11.51-25.58,2.43-9.11,3.02-18.06,1.74-26.83-1.27-8.77-3.61-15.58-7.03-20.42-9.7-14.02-24.61-19.33-44.73-15.92-27.92,4.72-54.16,17.19-78.71,37.4-11.6,9.32-22.05,19.87-31.36,31.69-9.31,11.83-17.01,24.3-23.1,37.41-6.09,13.12-10.42,26.56-12.97,40.34-1.18,6.33-1.82,12.86-1.98,19.57-1.15,1.55-2.32,3.07-3.51,4.56-12.37,15.05-24.39,23.56-36.09,25.54-17.31,2.93-27.24-4.38-29.79-21.92-.6-4.15-.52-8.61.22-13.38,2.47-14.92,8.37-29.35,17.69-43.31,2.18-.37,4.19-1.96,6.02-4.79,6.77-9.46,9.77-20.79,8.97-34-36.84,3.73-68.31.54-94.38-9.55,3.28-14.86,4.49-25.26,3.63-31.21-.86-5.94-3.11-10.44-6.74-13.5-9.32-8.09-21.62-10.84-36.91-8.26-5,.85-11.6,9.9-19.8,27.13-8.78,17.72-12.43,31.69-10.95,41.87,2.4,16.62,12.45,28.06,30.14,34.34-5.1,33.81-17.2,63.6-36.26,89.4-2.18,2.36-4.42,4.63-6.74,6.77-15.99,14.79-33.97,23.87-53.93,27.25-31.98,5.41-53.91-.93-65.8-19.02,20.94-6.63,39.17-14.75,54.72-24.34,8.81-5.35,16.97-11.33,24.49-17.92,7.51-6.58,13.89-13.85,19.13-21.8,5.24-7.95,9.07-16.47,11.52-25.58,2.43-9.11,3.02-18.06,1.74-26.83-1.27-8.77-3.61-15.59-7.03-20.42-9.7-14.02-24.61-19.32-44.73-15.92-27.92,4.73-54.16,17.19-78.71,37.4-11.6,9.32-22.05,19.88-31.36,31.69-9.31,11.83-17.01,24.29-23.1,37.4-6.09,13.12-10.42,26.56-12.97,40.34-1.18,6.33-1.82,12.86-1.98,19.57-1.15,1.55-2.32,3.07-3.51,4.56-5.58,6.74-11.43,12.42-17.55,17.03-6.13,4.61-13.01,7.57-20.65,8.86-7.64,1.29-14.51-.88-20.59-6.52-6.09-5.64-9.73-12.57-10.92-20.77-1.19-8.21-1.4-16.82-.63-25.85,2.1-29.55,12.73-61.6,31.85-96.16-1.52-1.67-4.86-4.06-10.02-7.14-5.17-3.1-9.61-4.33-13.36-3.69-8.73,1.48-20.84,14.46-36.31,38.92-7,11.25-13.87,23.96-20.6,38.14-6.74,14.19-12.58,28.71-17.54,43.57-2.8,8.37-5.18,16.69-7.18,24.97-.67-8.8-2.21-17.77-4.61-26.93-10.55-40.25-37.55-65.65-81.01-76.2,20.42-14.1,35.23-30.85,44.41-50.25,10.38-21.11,12.78-42.34,7.19-63.66-6.99-26.64-21.31-47.16-42.96-61.53-10.3-6.75-21.67-11.91-34.09-15.49-12.42-3.57-25.48-5.79-39.15-6.63-13.69-.85-27.7-.37-42.08,1.45-14.37,1.82-31.86,5.65-52.47,11.51-20.61,5.86-42.69,16.79-66.23,32.77-12.13,8.18-23.24,17.27-33.34,27.24-10.09,9.99-18.48,20.72-25.15,32.2-6.68,11.48-11.15,23.66-13.43,36.55-2.29,12.9-1.45,26.88,2.5,41.95,3.95,15.07,11.79,27.75,23.51,38.04,11.48,9.97,21.94,13.6,31.41,10.91,8.25-2.34,16.97-14.4,26.2-36.18-16.54-10.5-27.52-26.13-32.97-46.91-6.46-24.63,1.68-47.38,24.43-68.27,10.32-9.46,22.74-17.77,37.26-24.97,14.52-7.19,30.44-13.25,47.78-18.17,17.33-4.93,35.4-7.21,54.2-6.83,47.9.6,76.46,18.45,85.66,53.55,4.72,18.01-1.15,35.97-17.62,53.88-7.11,7.95-15.48,14.82-25.11,20.62-9.64,5.8-19.72,10.2-30.26,13.2-10.53,3-23.35,4.48-38.46,4.43,9.48-52.07,18.53-103.27,27.16-122.31-1.96-1.22-4.33-2.12-7.11-2.72-10.66-2.49-17.56-.34-20.69,6.48-10.58,20.98-21.76,66.27-33.53,104.57-5.3,17.32-10.46,35.22-15.45,53.72-4.99,18.5-11.92,44.32-20.79,77.45-8.87,33.13-16.09,58.78-21.66,76.96-35.51-5.9-62.2-17.56-80.05-35-11.16,7.52-15.98,14.13-14.5,19.82,3.91,14.89,15.25,32.21,34.05,51.94,25.99,27.16,58.07,45,96.23,53.5,39.02,8.65,78.6,7.26,118.76-4.16,54.05-15.38,92.58-43.32,115.6-83.83,4.34-7.62,7.83-15.43,10.49-23.41.18,3.46.49,6.85.97,10.16,1.79,12.36,4.94,22.5,9.45,30.44,11.91,21.58,29.95,30.31,54.12,26.22,22.93-3.88,44.03-15.96,63.31-36.23,8.6-9,16.31-18.91,23.14-29.72,3.52-5.58,6.79-11.17,9.82-16.74,2.11,5.46,4.63,10.56,7.58,15.24,19.62,30.71,54.23,41.86,103.83,33.47,24.64-4.17,47.16-14.75,67.55-31.74,9.42-7.78,18.01-16.63,25.75-26.54,7.75-9.92,14.55-20.4,20.38-31.44,5.83-11.04,11.77-25.23,17.8-42.59,1.02-2.92,1.92-5.71,2.73-8.38,7.91-21.61,15.71-44.98,23.41-70.14,13.62,1.37,29.87,1.04,48.75-.99-17.33,16.07-30.8,34.98-40.44,56.73-4.71,10.45-8.11,20.99-10.17,31.59-2.05,10.6-2.35,21.04-.86,31.31,1.49,10.29,4.59,18.99,9.3,26.13,13.78,21.26,36.04,29.28,66.77,24.08,18.09-3.06,35.4-14.3,51.92-33.73,7.36-8.78,14.11-18.43,20.26-28.94,2.9-4.96,5.63-9.93,8.2-14.92,2.06,5.22,4.5,10.09,7.34,14.6,19.63,30.71,54.23,41.86,103.83,33.47,24.64-4.17,47.16-14.75,67.55-31.74,9.42-7.78,18.01-16.63,25.76-26.54,7.75-9.92,14.54-20.4,20.37-31.44s11.77-25.23,17.8-42.6c6.03-17.36,8.43-30.28,7.2-38.77ZM493.7,734.28c-5.02,7.16-11.61,13.48-19.77,18.96-8.16,5.48-15.97,9.63-23.44,12.44-7.47,2.81-16.69,5.78-27.69,8.91-10.99,3.13-25.97,5.12-44.95,5.97,4-17.92,8.2-39.76,12.61-65.51,2.05-12.22,4.09-24.76,6.14-37.58,2.05-12.83,4.1-25.65,6.15-38.48,23.96-5.62,44.89-4.96,62.79,1.99,19.56,7.67,31.88,21.15,36.94,40.44,5.21,19.85,2.27,37.47-8.78,52.86ZM844.37,591.84c8.56-19.23,20.32-30.12,35.29-32.66,11.55-1.95,18.42,4.67,20.62,19.86,2.2,15.19-3.44,29.73-16.94,43.61-12.82,13.01-29,22.61-48.55,28.81-1.82-21.34,1.38-41.22,9.58-59.62ZM1266.88,520.32c8.55-19.24,20.32-30.13,35.29-32.66,11.55-1.95,18.42,4.67,20.62,19.86,2.2,15.19-3.44,29.73-16.94,43.61-12.81,13-29,22.61-48.55,28.81-1.81-21.34,1.38-41.21,9.58-59.61Z"/>
      </g>
      <path d="M344.14,557.74c-1.98,6.57-3.96,13.19-5.94,19.87l-10.32-6.52c-8.66-5.53-14.13-13.56-17.21-25.39-1.46-5.42-4.12-15.64,13.77-32.07,7.72-7.09,17.42-13.51,28.78-19.19,5.01-2.45,10.22-4.75,15.64-6.94-8.03,19.29-16.16,42.5-24.72,70.24Z"/>
      <path d="M781.87,533.64c-3.92-4.51-14.22-10.6-14.22-10.6-2.16-1.6-4.63-2.99-7.84-4.42,3.54-1.82,7.21-4.09,11.02-6.79,6.17-4.43,11.68-9.63,16.32-15.45,5.1-6.38,8.94-13.49,11.39-21.05,1.57-4.89,2.23-9.97,2.05-15.28h.03c4.43,5.46,8.79,11.74,13.84,15.81,8.66,6.96,16.96,9.79,17.51,9.98-28.24,11.67-41.22,33.51-50.1,47.81Z"/>
      <path d="M620.73,541.88s6.94-11.65,10.4-25.48c2.6-10.4,2.86-14.82,2.62-25.34h.04c4.88,11.14,12.03,28.09,27.84,31.85-28.82,4.51-40.89,18.97-40.89,18.97Z"/>
    </g>
    <g id="SECU">
      <path class="cls-5" d="M1642.74,1126.47c0,22-17.9,39.91-39.91,39.91h-45.72c.61-4.98.92-10.03.92-15.1v-16.59h41.33c7.63,0,13.81-6.18,13.81-13.81v-65.27c0-7.62-6.18-13.81-13.81-13.81h-41.33v-31.91h48.41c20.02,0,36.3,16.28,36.3,36.3v80.28Z"/>
      <path d="M1606.44,982.27h-48.41v-1.35c0-27.24-22.15-49.33-49.33-49.33h-87.5c-27.18,0-49.28,22.09-49.28,49.33v11.82h-4.69v-11.82c0-27.24-22.16-49.33-49.34-49.33h-86.95c-27.18,0-49.33,22.09-49.33,49.33v3.53c-9.17-30.49-37.51-52.81-70.93-52.81h-.11l-195.28.33c-22.32.06-42.32,10-55.85,25.69-6.19-15.69-21.49-26.79-39.28-26.79h-.22l-228.48,1.16c-16.35.05-31.6,6.52-43.09,18.12-4.42,4.47-8.12,9.55-10.88,15.08-13.26-20.22-36.13-33.64-62.09-33.64h-184.35c-25.69,0-49.76,12.6-64.28,33.79-19.48,28.42-46.39,65.69-62.57,87.91-9.09,12.49-13.96,27.52-13.96,42.96v27.47c0,27.79,15.47,50.49,42.54,62.81-23.7,1.44-42.54,21.21-42.54,45.24v30.33c0,40.83,33.26,74.08,74.08,74.08l191.75.06c26.29,0,49.38-13.87,62.53-34.59,9.78,20.72,30.82,35.14,55.13,35.14h.33l228.26-1.27c11.33-.06,21.88-4.53,29.83-12.54,3.54-3.59,6.3-7.68,8.35-12.1,13.58,15.52,33.47,25.36,55.62,25.36h195.34c19.83,0,38.45-7.74,52.43-21.77,10.33-10.27,17.18-23.09,20.05-37.07,7.12,33.53,36.9,58.78,72.53,58.78h190.03c27.85,0,54.47-11.49,73.64-31.71l63.75-67.45c11.82-12.48,20.81-27.15,26.59-43.02h52.35c37.24,0,67.53-30.3,67.53-67.53v-80.28c0-35.25-28.67-63.92-63.92-63.92ZM1642.74,1126.47c0,22-17.9,39.91-39.91,39.91h-45.72c.61-4.98.92-10.03.92-15.1v-16.59h41.33c7.63,0,13.81-6.18,13.81-13.81v-65.27c0-7.62-6.18-13.81-13.81-13.81h-41.33v-31.91h48.41c20.02,0,36.3,16.28,36.3,36.3v80.28ZM1558.03,1107.07v-37.65h27.52v37.65h-27.52Z"/>
      <path class="cls-5" d="M1642.74,1046.19v80.28c0,22-17.9,39.91-39.91,39.91h-45.72c.61-4.98.92-10.03.92-15.1v-16.59h41.33c7.63,0,13.81-6.18,13.81-13.81v-65.27c0-7.62-6.18-13.81-13.81-13.81h-41.33v-31.91h48.41c20.02,0,36.3,16.28,36.3,36.3Z"/>
      <path class="cls-5" d="M641.93,883.72l2.96,20.32c1.2,8.23,7.08,14.09,13.78,13.72l120.32-6.59c6.15-.34,11.32-5.85,12.55-13.37l6.52-39.9c1.87-11.47-6.02-21.73-15.27-19.87l-129.8,26.17c-7.41,1.49-12.4,10.29-11.05,19.51Z"/>
      <path d="M658.07,931.59c-13.28,0-24.69-10.75-26.84-25.56l-2.96-20.32h0c-2.43-16.68,7.23-32.07,21.99-35.04l129.8-26.17c8.17-1.63,16.41.86,22.63,6.85,7.3,7.05,10.75,18.07,9,28.79l-6.52,39.9c-2.29,13.99-12.74,24.24-25.43,24.93l-120.31,6.59c-.45.03-.91.04-1.35.04ZM655.6,881.73l2.96,20.32c.13.86.38,1.48.59,1.86l118.11-6.46c.22-.35.5-.97.65-1.86l6.52-39.9c.28-1.7-.09-3.02-.47-3.78l-127.61,25.73c-.41.58-1.05,2.1-.76,4.11h0Z"/>
      <path class="cls-5" d="M475.4,959.21h-191.75c-25.69,0-46.51,20.83-46.51,46.46v18.23c0,15.69,7.9,30.05,28.45,38.56l97.5,45.3c11.49,4.97,21.1,10.77,22.43,23.2.06.94.11,1.88.11,2.82,0,10.39-8.45,18.84-18.84,18.84l-18.95.06h-.06c-10.44,0-18.95-8.45-19-18.89l-.06-2.04c-.06-4.86-2.04-9.28-5.19-12.43-3.2-3.15-7.62-5.14-12.48-5.14l-56.24.11c-9.78,0-17.68,7.9-17.68,17.68v30.33c0,25.63,20.83,46.46,46.46,46.46l191.75.06c25.63,0,46.4-20.77,46.46-46.4l.06-17.4c0-19.33-11.93-36.68-30-43.53l-90.21-44.08c-8.78-3.31-28.5-12.76-28.56-22.21v-4.97c0-10.44,8.45-18.84,18.84-18.84h34.03c10.5,0,18.95,8.45,18.89,18.95v4.25c0,9.72,7.95,17.62,17.68,17.62h41.71c9.78,0,17.68-7.9,17.68-17.68v-28.84c0-25.63-20.83-46.46-46.51-46.46Z"/>
      <path class="cls-5" d="M830.55,1156.42c-2.54-2.43-5.97-3.92-9.72-3.92l-126.06.11-.28-47.95,78.06-.66c8.07-.06,14.58-6.68,14.53-14.75l-.11-16.46c-.06-8.07-6.63-14.53-14.69-14.53h-.06l-77.95.39-.28-47.29,126.39-.72c8.07-.06,14.58-6.63,14.53-14.75l-.11-22.82c-.05-8.07-6.57-14.58-14.64-14.58h-.06l-228.54,1.16c-18.45.06-33.31,15.14-33.15,33.53l1.22,183.07c.17,18.34,15.08,33.09,33.37,33.09h.17l228.26-1.27c8.12-.06,14.64-6.68,14.58-14.75l-1.16-27.34c-.17-3.76-1.82-7.13-4.31-9.56Z"/>
      <path class="cls-5" d="M1142.5,1118.64h-62.09c-8.07,0-14.64,6.52-14.64,14.58-.05,13.76-11.21,19.39-24.97,19.39h-17.62c-16.41,0-29.66-13.31-29.66-29.72v-81.87c0-16.41,13.26-29.67,29.66-29.67h17.73c13.7,0,24.86,11.05,24.97,24.75l.06,1.33c0,4.03,1.66,7.62,4.31,10.27,2.65,2.6,6.3,4.25,10.33,4.25l61.93-.06c8.12,0,14.64-6.52,14.64-14.64v-31.49c0-25.69-20.83-46.51-46.46-46.51h-.06l-195.28.33c-25.63.06-46.4,20.83-46.4,46.46v156.28c0,25.63,20.77,46.46,46.46,46.46h195.34c25.69,0,46.51-20.88,46.46-46.57v-28.95c-.06-8.12-6.57-14.64-14.69-14.64Z"/>
      <path class="cls-5" d="M1508.7,959.21h-87.5c-11.93,0-21.65,9.72-21.65,21.71v157c0,8.12-6.57,14.69-14.7,14.69h-30.6c-8.12,0-14.64-6.57-14.64-14.69v-157c0-11.99-9.72-21.71-21.71-21.71h-86.95c-11.99,0-21.71,9.72-21.71,21.71v181.36c0,25.63,20.83,46.46,46.51,46.46h233.67c25.69,0,40.99-20.83,40.99-46.46v-181.36c0-11.99-9.72-21.71-21.71-21.71Z"/>
      <path class="cls-5" d="M1548.39,907.64c0,29.25-23.8,53.05-53.05,53.05-27.4,0-50.09-20.52-52.79-47.74-.37-3.72-2.23-7.13-5.15-9.46-2.76-2.19-6.24-3.22-9.77-2.94-.14.01-.29.02-.39.03-7.14.62-12.61,6.59-12.61,13.76,0,.36.01.72.03,1.09-.2,29.09-23.92,52.69-53.05,52.69-19.14,0-36.87-10.4-46.28-27.15-2.54-4.51-7.48-7.22-12.56-7.03-5.17.19-9.81,3.27-12,7.95-8.69,18.65-27.55,30.69-48.04,30.69-29.26,0-53.06-23.8-53.06-53.06,0-26.31,19.66-48.86,45.73-52.47,3.97-.55,7.5-2.8,9.69-6.16,2.17-3.36,2.8-7.5,1.68-11.35-1.4-4.88-2.12-9.83-2.12-14.72,0-29.25,23.81-53.05,53.06-53.05,12.27,0,24.23,4.29,33.69,12.07,3.21,2.64,7.42,3.7,11.49,2.88,4.08-.81,7.56-3.42,9.5-7.09,13.21-25.01,38.95-40.55,67.17-40.55,41.88,0,75.94,34.07,75.94,75.95,0,4.64-.47,9.46-1.4,14.33-.68,3.61.09,7.34,2.16,10.38,2.07,3.03,5.26,5.12,8.87,5.79,25.07,4.68,43.26,26.59,43.26,52.11Z"/>
      <path d="M1522.89,831.83c.15-2.29.24-4.56.24-6.8,0-57.11-46.46-103.57-103.57-103.57-33.37,0-64.19,15.92-83.54,42.38-11.7-6.32-24.88-9.69-38.31-9.69-44.48,0-80.68,36.19-80.68,80.67,0,2.72.14,5.44.43,8.16-32.41,10.72-55.41,41.44-55.41,76.54,0,44.49,36.19,80.68,80.68,80.68,23.89,0,46.32-10.75,61.44-28.52,14.98,15.17,35.6,24.06,57.44,24.06,29.4,0,55.19-15.81,69.29-39.39,14.75,19.55,38.18,31.97,64.44,31.97,44.48,0,80.68-36.2,80.68-80.68,0-34.36-21.7-64.42-53.13-75.81ZM1495.34,960.69c-27.4,0-50.09-20.52-52.79-47.74-.37-3.72-2.23-7.13-5.15-9.46-2.76-2.19-6.24-3.22-9.77-2.94-.14.01-.29.02-.39.03-7.14.62-12.61,6.59-12.61,13.76,0,.36.01.72.03,1.09-.2,29.09-23.92,52.69-53.05,52.69-19.14,0-36.87-10.4-46.28-27.15-2.54-4.51-7.48-7.22-12.56-7.03-5.17.19-9.81,3.27-12,7.95-8.69,18.65-27.55,30.69-48.04,30.69-29.26,0-53.06-23.8-53.06-53.06,0-26.31,19.66-48.86,45.73-52.47,3.97-.55,7.5-2.8,9.69-6.16,2.17-3.36,2.8-7.5,1.68-11.35-1.4-4.88-2.12-9.83-2.12-14.72,0-29.25,23.81-53.05,53.06-53.05,12.27,0,24.23,4.29,33.69,12.07,3.21,2.64,7.42,3.7,11.49,2.88,4.08-.81,7.56-3.42,9.5-7.09,13.21-25.01,38.95-40.55,67.17-40.55,41.88,0,75.94,34.07,75.94,75.95,0,4.64-.47,9.46-1.4,14.33-.68,3.61.09,7.34,2.16,10.38,2.07,3.03,5.26,5.12,8.87,5.79,25.07,4.68,43.26,26.59,43.26,52.11,0,29.25-23.8,53.05-53.05,53.05Z"/>
      <ellipse cx="1412.9" cy="829.18" rx="17.65" ry="16.19"/>
      <path d="M1296,888.2h-.16c-7.63-.09-13.74-6.34-13.66-13.96.13-12.2,4.67-23.67,12.78-32.31,8.41-8.97,19.7-13.57,31.53-13.7,9.36.11,18.25,3.29,25.71,9.2,5.98,4.74,6.99,13.42,2.25,19.4-4.74,5.98-13.42,6.98-19.4,2.25-1.83-1.45-4.86-3.19-8.87-3.24-4.04-.04-8.03,1.73-11.08,4.97-3.36,3.58-5.24,8.45-5.3,13.71-.09,7.57-6.25,13.66-13.81,13.66Z"/>
    </g>
  </g>
</svg>